<svg width="155" height="155" viewBox="0 0 155 155" fill="none" xmlns="http://www.w3.org/2000/svg">
<rect width="155" height="155" fill="white"/>
<path d="M60.5508 82H56.8276V74.0288C56.8276 72.0594 56.0952 71.0747 54.6304 71.0747C53.5887 71.0747 52.8359 71.4287 52.3721 72.1367C51.9082 72.8447 51.6763 73.9922 51.6763 75.5791V82H47.9531V63.0059H51.6763V66.8755C51.6763 67.1766 51.6478 67.8846 51.5908 68.9995L51.5054 70.0981H51.7007C52.5308 68.7635 53.8491 68.0962 55.6558 68.0962C57.259 68.0962 58.4756 68.5275 59.3057 69.3901C60.1357 70.2528 60.5508 71.4897 60.5508 73.1011V82Z" fill="#262626"/>
<path d="M71.4517 71.978H78.5317V81.231C77.3843 81.6053 76.3019 81.8657 75.2847 82.0122C74.2756 82.1668 73.242 82.2441 72.1841 82.2441C69.4904 82.2441 67.4315 81.4548 66.0073 79.876C64.5913 78.2891 63.8833 76.0145 63.8833 73.0522C63.8833 70.1714 64.7052 67.9253 66.3491 66.314C68.0011 64.7026 70.2879 63.897 73.2095 63.897C75.0405 63.897 76.8065 64.2632 78.5073 64.9956L77.25 68.0229C75.9479 67.3719 74.5929 67.0464 73.1851 67.0464C71.5493 67.0464 70.2391 67.5957 69.2544 68.6943C68.2697 69.793 67.7773 71.27 67.7773 73.1255C67.7773 75.0623 68.172 76.5435 68.9614 77.5688C69.759 78.5861 70.9146 79.0947 72.4282 79.0947C73.2176 79.0947 74.0192 79.0133 74.833 78.8506V75.1274H71.4517V71.978Z" fill="#262626"/>
<path d="M90.1162 68.0962C90.6208 68.0962 91.0399 68.1328 91.3735 68.2061L91.0928 71.6973C90.7917 71.6159 90.4255 71.5752 89.9941 71.5752C88.806 71.5752 87.8783 71.8804 87.2109 72.4907C86.5518 73.1011 86.2222 73.9556 86.2222 75.0542V82H82.499V68.3525H85.3188L85.8682 70.6475H86.0513C86.4744 69.8825 87.0441 69.2681 87.7603 68.8042C88.4845 68.3322 89.2699 68.0962 90.1162 68.0962Z" fill="#262626"/>
<path d="M102.519 82L101.798 80.1445H101.701C101.074 80.9339 100.427 81.4832 99.7598 81.7925C99.1006 82.0936 98.238 82.2441 97.1719 82.2441C95.8617 82.2441 94.8281 81.8698 94.0713 81.1211C93.3226 80.3724 92.9482 79.3063 92.9482 77.9229C92.9482 76.4743 93.4528 75.4082 94.4619 74.7246C95.4792 74.0329 97.0091 73.6504 99.0518 73.5771L101.42 73.5039V72.9058C101.42 71.5223 100.712 70.8306 99.2959 70.8306C98.2054 70.8306 96.9237 71.1602 95.4507 71.8193L94.2178 69.3047C95.7884 68.4827 97.5299 68.0718 99.4424 68.0718C101.273 68.0718 102.677 68.4705 103.654 69.2681C104.63 70.0656 105.119 71.2782 105.119 72.9058V82H102.519ZM101.42 75.6768L99.9795 75.7256C98.8971 75.7581 98.0915 75.9535 97.5625 76.3115C97.0335 76.6696 96.769 77.2148 96.769 77.9473C96.769 78.9971 97.3713 79.522 98.5757 79.522C99.4383 79.522 100.126 79.2738 100.639 78.7773C101.16 78.2809 101.42 77.6217 101.42 76.7998V75.6768Z" fill="#262626"/>
<path d="M116.459 82.2441C114.856 82.2441 113.598 81.6623 112.687 80.4985H112.492C112.622 81.6379 112.687 82.297 112.687 82.4761V88.0059H108.964V68.3525H111.991L112.516 70.1226H112.687C113.558 68.7716 114.848 68.0962 116.557 68.0962C118.168 68.0962 119.429 68.7188 120.341 69.9639C121.252 71.209 121.708 72.9383 121.708 75.1519C121.708 76.6086 121.492 77.874 121.061 78.9482C120.638 80.0225 120.032 80.8403 119.242 81.4019C118.453 81.9634 117.525 82.2441 116.459 82.2441ZM115.36 71.0747C114.441 71.0747 113.769 71.3595 113.346 71.9292C112.923 72.4907 112.703 73.4225 112.687 74.7246V75.1274C112.687 76.5923 112.903 77.6421 113.334 78.2769C113.773 78.9116 114.465 79.229 115.409 79.229C117.077 79.229 117.912 77.8537 117.912 75.103C117.912 73.7603 117.704 72.7552 117.289 72.0879C116.882 71.4124 116.239 71.0747 115.36 71.0747Z" fill="#262626"/>
<path d="M137.382 82H133.659V74.0288C133.659 72.0594 132.926 71.0747 131.461 71.0747C130.42 71.0747 129.667 71.4287 129.203 72.1367C128.739 72.8447 128.507 73.9922 128.507 75.5791V82H124.784V63.0059H128.507V66.8755C128.507 67.1766 128.479 67.8846 128.422 68.9995L128.336 70.0981H128.532C129.362 68.7635 130.68 68.0962 132.487 68.0962C134.09 68.0962 135.307 68.5275 136.137 69.3901C136.967 70.2528 137.382 71.4897 137.382 73.1011V82Z" fill="#262626"/>
<circle r="2.5" transform="matrix(-4.37114e-08 -1 -1 4.37114e-08 13.3828 61.901)" fill="#EB5E43"/>
<path fill-rule="evenodd" clip-rule="evenodd" d="M26.5 79.9402C31.1353 79.9402 34.9227 76.1778 34.9227 71.5C34.9227 66.8222 31.1353 63.0598 26.5 63.0598C21.8647 63.0598 18.0773 66.8222 18.0773 71.5C18.0773 76.1778 21.8647 79.9402 26.5 79.9402ZM26.5 84C33.4036 84 39 78.4036 39 71.5C39 64.5964 33.4036 59 26.5 59C19.5964 59 14 64.5964 14 71.5C14 78.4036 19.5964 84 26.5 84Z" fill="#9CC68A"/>
</svg>
