<svg width="155" height="155" viewBox="0 0 155 155" fill="none" xmlns="http://www.w3.org/2000/svg">
<rect width="155" height="155" fill="white"/>
<circle r="8.5" transform="matrix(-1 0 0 1 24.5 34.5)" fill="#EB5E43"/>
<path fill-rule="evenodd" clip-rule="evenodd" d="M78 114.137C98.3954 114.137 115.06 97.5823 115.06 77C115.06 56.4177 98.3954 39.8632 78 39.8632C57.6046 39.8632 40.9399 56.4177 40.9399 77C40.9399 97.5823 57.6046 114.137 78 114.137ZM78 132C108.376 132 133 107.376 133 77C133 46.6243 108.376 22 78 22C47.6243 22 23 46.6243 23 77C23 107.376 47.6243 132 78 132Z" fill="#9CC68A"/>
</svg>
