<svg width="1194" height="834" viewBox="0 0 1194 834" fill="none" xmlns="http://www.w3.org/2000/svg">
<rect width="1194" height="834" fill="white"/>
<path fill-rule="evenodd" clip-rule="evenodd" d="M596.5 579.889C685.313 579.889 757.88 507.501 757.88 417.5C757.88 327.499 685.313 255.111 596.5 255.111C507.687 255.111 435.12 327.499 435.12 417.5C435.12 507.501 507.687 579.889 596.5 579.889ZM596.5 658C728.772 658 836 550.324 836 417.5C836 284.676 728.772 177 596.5 177C464.228 177 357 284.676 357 417.5C357 550.324 464.228 658 596.5 658Z" fill="#9CC68A"/>
<circle cx="596.5" cy="417.5" r="162.5" fill="#F2F2F2"/>
<g style="mix-blend-mode:multiply" opacity="0.15">
<path d="M431.845 219L567 164L657 216L673 322L807 306L827 396.137L815 492L699 479.502L717 581.225L638.67 618.078L552.165 608.225L476.068 586.225L432.845 542.043L392.738 480.502L393.738 408.467L377 298L431.845 219Z" fill="black"/>
</g>
<text fill="#EB5E43" xml:space="preserve" style="white-space: pre" font-family="Adobe Jenson Pro" font-size="28" letter-spacing="0em"><tspan x="523.475" y="136.16">Weight</tspan></text>
<text fill="#EB5E43" xml:space="preserve" style="white-space: pre" font-family="Adobe Jenson Pro" font-size="28" letter-spacing="0em"><tspan x="241.979" y="296.16">Nutrition</tspan></text>
<text fill="#EB5E43" xml:space="preserve" style="white-space: pre" font-family="Adobe Jenson Pro" font-size="28" letter-spacing="0em"><tspan x="180.193" y="205.16">Waist Circumference</tspan></text>
<text fill="#3B3B3B" xml:space="preserve" style="white-space: pre" font-family="Adobe Jenson Pro" font-size="28" letter-spacing="0em"><tspan x="670.99" y="182.16">Exercise</tspan></text>
<text fill="#3B3B3B" xml:space="preserve" style="white-space: pre" font-family="Adobe Jenson Pro" font-size="28" letter-spacing="0em"><tspan x="824.893" y="299.16">Happiness</tspan></text>
<text fill="#3B3B3B" xml:space="preserve" style="white-space: pre" font-family="Adobe Jenson Pro" font-size="28" letter-spacing="0em"><tspan x="853.326" y="402.16">Triglycerides</tspan></text>
<text fill="#3B3B3B" xml:space="preserve" style="white-space: pre" font-family="Adobe Jenson Pro" font-size="28" letter-spacing="0em"><tspan x="839.812" y="508.16">LDL</tspan></text>
<text fill="#3B3B3B" xml:space="preserve" style="white-space: pre" font-family="Adobe Jenson Pro" font-size="28" letter-spacing="0em"><tspan x="743.338" y="642.16">Glucose</tspan></text>
<text fill="#3B3B3B" xml:space="preserve" style="white-space: pre" font-family="Adobe Jenson Pro" font-size="28" letter-spacing="0em"><tspan x="445.494" y="685.16">Conditions</tspan></text>
<text fill="#3B3B3B" xml:space="preserve" style="white-space: pre" font-family="Adobe Jenson Pro" font-size="28" letter-spacing="0em"><tspan x="321.09" y="641.16">Environment</tspan></text>
<text fill="#3B3B3B" xml:space="preserve" style="white-space: pre" font-family="Adobe Jenson Pro" font-size="28" letter-spacing="0em"><tspan x="247.674" y="572.16">Vaccinations</tspan></text>
<text fill="#3B3B3B" xml:space="preserve" style="white-space: pre" font-family="Adobe Jenson Pro" font-size="28" letter-spacing="0em"><tspan x="217.725" y="506.16">Medications</tspan></text>
<text fill="#3B3B3B" xml:space="preserve" style="white-space: pre" font-family="Adobe Jenson Pro" font-size="28" letter-spacing="0em"><tspan x="179.316" y="405.16">Alcohol, Drugs</tspan></text>
<text fill="#3B3B3B" xml:space="preserve" style="white-space: pre" font-family="Adobe Jenson Pro" font-size="28" letter-spacing="0em"><tspan x="647.014" y="685.16">Blood Pressure</tspan></text>
<text fill="#EB5E43" xml:space="preserve" style="white-space: pre" font-family="Adobe Jenson Pro" font-size="28" letter-spacing="0em"><tspan x="800.012" y="586.16">HDL</tspan></text>
<text fill="#EB5E43" xml:space="preserve" style="white-space: pre" font-family="Adobe Jenson Pro" font-size="28" letter-spacing="0em"><tspan x="752.934" y="226.16">Sleep</tspan></text>
<text fill="black" xml:space="preserve" style="white-space: pre" font-family="Adobe Jenson Pro" font-size="120" font-weight="600" letter-spacing="0em"><tspan x="535.359" y="442.4">84</tspan></text>
<circle r="15.5" transform="matrix(-1 0 0 1 655.5 216.5)" fill="#3B3B3B"/>
<circle r="15.5" transform="matrix(-1 0 0 1 670.5 320.5)" fill="#EB5E43"/>
<circle r="15.5" transform="matrix(-1 0 0 1 803.5 306.5)" fill="#3B3B3B"/>
<circle r="15.5" transform="matrix(-1 0 0 1 825.5 396.5)" fill="#3B3B3B"/>
<circle r="15.5" transform="matrix(-1 0 0 1 816.5 489.5)" fill="#3B3B3B"/>
<circle r="15.5" transform="matrix(-1 0 0 1 696.5 478.5)" fill="#EB5E43"/>
<circle r="15.5" transform="matrix(-1 0 0 1 715.5 578.5)" fill="#3B3B3B"/>
<circle r="15.5" transform="matrix(-1 0 0 1 638.5 617.5)" fill="#3B3B3B"/>
<circle r="15.5" transform="matrix(-1 0 0 1 556.5 607.5)" fill="#3B3B3B"/>
<circle r="15.5" transform="matrix(-1 0 0 1 476.5 583.5)" fill="#3B3B3B"/>
<circle r="15.5" transform="matrix(-1 0 0 1 431.5 538.5)" fill="#3B3B3B"/>
<circle r="15.5" transform="matrix(-1 0 0 1 393.5 477.5)" fill="#3B3B3B"/>
<circle r="15.5" transform="matrix(-1 0 0 1 393.5 398.5)" fill="#3B3B3B"/>
<circle r="15.5" transform="matrix(-1 0 0 1 377.5 295.5)" fill="#EB5E43"/>
<circle r="15.5" transform="matrix(-1 0 0 1 431.5 216.5)" fill="#EB5E43"/>
<circle r="15.5" transform="matrix(-1 0 0 1 566.5 163.5)" fill="#EB5E43"/>
</svg>
